<mxfile host="app.diagrams.net" modified="2022-10-31T10:54:05.524Z" agent="5.0 (Windows NT 10.0; Win64; x64) AppleWebKit/537.36 (KHTML, like Gecko) Chrome/106.0.0.0 Safari/537.36" etag="Xv_-TM3RikzEbwOfUq_G" version="20.5.1" type="github">
  <diagram id="-5MKdK6eIRbCkDSXRrTR" name="第 1 页">
    <mxGraphModel dx="1237" dy="663" grid="1" gridSize="10" guides="1" tooltips="1" connect="1" arrows="1" fold="1" page="1" pageScale="1" pageWidth="3300" pageHeight="2339" math="0" shadow="0">
      <root>
        <mxCell id="0" />
        <mxCell id="1" parent="0" />
        <mxCell id="uijvVhA-nRrtOMYBr-LF-1" value="Model" style="shape=umlFrame;whiteSpace=wrap;html=1;" vertex="1" parent="1">
          <mxGeometry x="90" y="170" width="390" height="500" as="geometry" />
        </mxCell>
        <mxCell id="uijvVhA-nRrtOMYBr-LF-2" value="Cert" style="shape=umlFrame;whiteSpace=wrap;html=1;" vertex="1" parent="1">
          <mxGeometry x="90" y="700" width="390" height="260" as="geometry" />
        </mxCell>
        <mxCell id="uijvVhA-nRrtOMYBr-LF-3" value="SolacLib" style="shape=umlFrame;whiteSpace=wrap;html=1;" vertex="1" parent="1">
          <mxGeometry x="90" y="990" width="390" height="500" as="geometry" />
        </mxCell>
        <mxCell id="uijvVhA-nRrtOMYBr-LF-4" value="Model" style="shape=umlFrame;whiteSpace=wrap;html=1;" vertex="1" parent="1">
          <mxGeometry x="590" y="170" width="390" height="1320" as="geometry" />
        </mxCell>
        <mxCell id="uijvVhA-nRrtOMYBr-LF-5" value="&lt;h1&gt;Model&lt;/h1&gt;&lt;p&gt;包含API、API查詢回來的資料、存資料用的Centers&lt;/p&gt;" style="text;html=1;strokeColor=none;fillColor=none;spacing=5;spacingTop=-20;whiteSpace=wrap;overflow=hidden;rounded=0;" vertex="1" parent="1">
          <mxGeometry x="90" y="80" width="390" height="70" as="geometry" />
        </mxCell>
        <mxCell id="uijvVhA-nRrtOMYBr-LF-6" value="&lt;h1&gt;ViewModel&lt;/h1&gt;&lt;p&gt;負責接收View的Event，並提出資料需求、跟資料接收。&lt;/p&gt;" style="text;html=1;strokeColor=none;fillColor=none;spacing=5;spacingTop=-20;whiteSpace=wrap;overflow=hidden;rounded=0;" vertex="1" parent="1">
          <mxGeometry x="590" y="80" width="390" height="70" as="geometry" />
        </mxCell>
        <mxCell id="uijvVhA-nRrtOMYBr-LF-7" value="Model" style="shape=umlFrame;whiteSpace=wrap;html=1;" vertex="1" parent="1">
          <mxGeometry x="1080" y="170" width="580" height="1320" as="geometry" />
        </mxCell>
        <mxCell id="uijvVhA-nRrtOMYBr-LF-8" value="&lt;h1&gt;View&lt;/h1&gt;&lt;p&gt;處理畫面呈現、轉向、等等只跟UI相關的功能&lt;br&gt;*iOS的ViewController算在View中&lt;/p&gt;" style="text;html=1;strokeColor=none;fillColor=none;spacing=5;spacingTop=-20;whiteSpace=wrap;overflow=hidden;rounded=0;" vertex="1" parent="1">
          <mxGeometry x="1080" y="80" width="390" height="80" as="geometry" />
        </mxCell>
        <mxCell id="uijvVhA-nRrtOMYBr-LF-10" value="LoginViewController" style="rounded=0;whiteSpace=wrap;html=1;fillColor=#f5f5f5;fontColor=#333333;strokeColor=#666666;" vertex="1" parent="1">
          <mxGeometry x="1180" y="220" width="120" height="60" as="geometry" />
        </mxCell>
        <mxCell id="uijvVhA-nRrtOMYBr-LF-11" value="View" style="rounded=0;whiteSpace=wrap;html=1;fillColor=#f5f5f5;fontColor=#333333;strokeColor=#666666;" vertex="1" parent="1">
          <mxGeometry x="1340" y="220" width="120" height="60" as="geometry" />
        </mxCell>
        <mxCell id="uijvVhA-nRrtOMYBr-LF-12" value="RequestAuthentication" style="rounded=0;whiteSpace=wrap;html=1;fillColor=#fff2cc;strokeColor=#d6b656;" vertex="1" parent="1">
          <mxGeometry x="310" y="220" width="125" height="60" as="geometry" />
        </mxCell>
        <mxCell id="uijvVhA-nRrtOMYBr-LF-16" value="LoginViewModel" style="swimlane;fontStyle=0;childLayout=stackLayout;horizontal=1;startSize=30;horizontalStack=0;resizeParent=1;resizeParentMax=0;resizeLast=0;collapsible=1;marginBottom=0;fillColor=#dae8fc;strokeColor=#6c8ebf;" vertex="1" parent="1">
          <mxGeometry x="715" y="220" width="140" height="120" as="geometry">
            <mxRectangle x="725" y="290" width="60" height="30" as="alternateBounds" />
          </mxGeometry>
        </mxCell>
        <mxCell id="uijvVhA-nRrtOMYBr-LF-17" value="首次登入申請憑證" style="text;strokeColor=none;fillColor=none;align=left;verticalAlign=middle;spacingLeft=4;spacingRight=4;overflow=hidden;points=[[0,0.5],[1,0.5]];portConstraint=eastwest;rotatable=0;" vertex="1" parent="uijvVhA-nRrtOMYBr-LF-16">
          <mxGeometry y="30" width="140" height="30" as="geometry" />
        </mxCell>
        <mxCell id="uijvVhA-nRrtOMYBr-LF-18" value="輸入密碼登入" style="text;strokeColor=none;fillColor=none;align=left;verticalAlign=middle;spacingLeft=4;spacingRight=4;overflow=hidden;points=[[0,0.5],[1,0.5]];portConstraint=eastwest;rotatable=0;" vertex="1" parent="uijvVhA-nRrtOMYBr-LF-16">
          <mxGeometry y="60" width="140" height="30" as="geometry" />
        </mxCell>
        <mxCell id="uijvVhA-nRrtOMYBr-LF-19" value="生物辨識登入" style="text;strokeColor=none;fillColor=none;align=left;verticalAlign=middle;spacingLeft=4;spacingRight=4;overflow=hidden;points=[[0,0.5],[1,0.5]];portConstraint=eastwest;rotatable=0;" vertex="1" parent="uijvVhA-nRrtOMYBr-LF-16">
          <mxGeometry y="90" width="140" height="30" as="geometry" />
        </mxCell>
      </root>
    </mxGraphModel>
  </diagram>
</mxfile>
